# xmcd CD database file
#
# Track frame offsets:
#	150
#	27196
#	45789
#	63244
#	91548
#	108726
#	138551
#	160944
#	172892
#	205495
#	234403
#	237868
#
# Disc length: 3456 seconds
#
# Revision: 0
# Processed by: cddbd v1.5.2PL0 Copyright (c) Steve Scherf et al.
# Submitted via: CDex 1.81
#
DISCID=900d7e0c
DTITLE=Bireli Lagrene and Sylvain Luc - Summertime
DYEAR=2009
DGENRE=Jazz
TTITLE0=Summertime
TTITLE1=So What
TTITLE2=On the Fourth of July
TTITLE3=Spain
TTITLE4=My One and only Love
TTITLE5=Wave
TTITLE6=All the things you are
TTITLE7=Got a match
TTITLE8=Can't take my eyes off you
TTITLE9=On green Dolphin Street
TTITLE10=Interlude
TTITLE11=Someday my prince will come
EXTD=YEAR: 2009
EXTT0=
EXTT1=
EXTT2=
EXTT3=
EXTT4=
EXTT5=
EXTT6=
EXTT7=
EXTT8=
EXTT9=
EXTT10=
EXTT11=
PLAYORDER=
